<?xml version="1.0" encoding="UTF-8"?>
<svg preserveAspectRatio="none" version="1.1" viewBox="0 0 1440 560" xmlns="http://www.w3.org/2000/svg">
<g fill="rgba(190, 227, 248, 0.4)" mask="url(#a)">
<path class="triangle-float3" d="m1382 689.37c49.502 2.121 96.119-23.107 122.47-65.065 28.196-44.893 36.666-101.39 11.319-147.95-26.37-48.44-78.673-78.989-133.79-77.019-52.194 1.865-95.195 39.134-118.19 86.025-20.419 41.633-10.599 89.052 12.646 129.18 23.172 39.998 59.364 72.858 105.55 74.837"/>
<path class="triangle-float1" d="m1220.5 122.15c23.915-0.57 48.958-3.976 62.669-23.579 15.771-22.549 22.38-53.551 7.44-76.659-14.156-21.896-44.104-22.169-70.109-20.276-22.027 1.603-41.987 11.08-54.409 29.34-14.472 21.273-26.84 48.616-13.655 70.71 13.012 21.805 42.679 21.069 68.064 20.464"/>
<path class="triangle-float2" d="m1244 229.11-90.048-63.052-49.554 166.6z"/>
<path class="triangle-float1" d="m1167.6 462.48a161.39 161.39 0 1 0 322.78 0 161.39 161.39 0 1 0-322.78 0z"/>
<path class="triangle-float2" d="m1165.6 55.164-87.483 21.812 76.459 120.32z"/>
<path class="triangle-float1" d="m499.61 432.64 23.425-120.51-120.51-23.425-23.425 120.51z"/>
<path class="triangle-float3" d="m447.5 132.82a128.74 128.74 0 1 0 257.48 0 128.74 128.74 0 1 0-257.48 0z"/>
<path class="triangle-float3" d="m1269 162.67c15.646 1.074 33.397 0.908 42.205-12.068 9.606-14.151 7.922-33.596-1.532-47.85-8.615-12.99-25.088-16.006-40.673-15.786-15.096 0.213-31.267 3.784-38.729 16.909-7.4 13.016-2.744 29.045 5.493 41.549 7.359 11.171 19.89 16.33 33.236 17.246"/>
<path class="triangle-float2" d="m462.22 402.28-130.77-102.37-22.711 143.39z"/>
<path class="triangle-float2" d="m889.43 484.77c40.712-0.43 74.927-26.608 95.966-61.465 21.888-36.263 30.23-79.539 12.307-117.92-21.052-45.079-58.53-86.65-108.27-87.574-50.884-0.945-93.466 37.529-115.47 83.418-19.335 40.317-7.877 86.29 15.934 124.14 22.053 35.053 58.128 59.838 99.539 59.401"/>
<path class="triangle-float1" d="m1148.2 249.72c18.119 0.491 36.442-8.604 44.142-25.013 6.945-14.799-3.099-30.312-11.639-44.251-7.983-13.029-17.262-26.702-32.503-27.796-16.89-1.212-33.28 7.795-41.732 22.468-8.438 14.649-6.705 32.54 1.549 47.293 8.474 15.146 22.834 26.829 40.183 27.299"/>
<path class="triangle-float1" d="m1428.6 473.76-75.327-43.49-43.49 75.327 75.327 43.49z"/>
<path class="triangle-float2" d="m413.21 105.61c21.24 0.875 44.957-2.128 55.918-20.342 11.192-18.598 3.876-41.748-7.385-60.305-10.758-17.729-27.804-32.441-48.533-31.844-19.947 0.575-34.28 17.036-43.92 34.508-9.24 16.746-13.936 36.677-4.551 53.342 9.533 16.926 29.061 23.842 48.471 24.641"/>
<path class="triangle-float1" d="m1048.5 407.17a113.26 113.26 0 1 0 226.52 0 113.26 113.26 0 1 0-226.52 0z"/>
<path class="triangle-float2" d="m986.2 528.27a105.46 105.46 0 1 0 210.92 0 105.46 105.46 0 1 0-210.92 0z"/>
<path class="triangle-float3" d="m1289.4 359.08 151.75 106.48 16.939-161.16z"/>
<path class="triangle-float3" d="m1026.8 259.68c15.758 0.902 33.101-1.485 41.643-14.758 9.091-14.127 6.449-32.411-1.911-46.982-8.403-14.645-22.864-24.832-39.732-25.594-18.307-0.827-38.28 5.309-46.478 21.699-7.695 15.385 2.408 32.5 12.349 46.539 8.075 11.403 20.18 18.297 34.129 19.096"/>
<path class="triangle-float3" d="m332.94 569.26c18.027-1.026 30.397-16.185 39.129-31.989 8.368-15.145 13.407-32.95 5.151-48.156-8.579-15.8-26.302-23.722-44.28-23.912-18.345-0.194-36.274 7.36-45.933 22.958-10.172 16.427-11.277 37.24-1.755 54.052 9.653 17.043 28.133 28.16 47.688 27.047"/>
<path class="triangle-float1" d="m-158.24 57.94a181.61 181.61 0 1 0 363.22 0 181.61 181.61 0 1 0-363.22 0z"/>
<path class="triangle-float2" d="m30.266 446.56c25.856-0.55 48.742-14.753 62.382-36.726 14.522-23.393 22.299-53.121 8-76.651-13.921-22.909-43.584-26.685-70.382-26.007-25.31 0.64-50.869 8.067-64.472 29.42-14.597 22.913-16.426 52.558-2.685 75.995 13.599 23.194 40.276 34.541 67.157 33.969"/>
</g>
<defs>
<mask id="a">
<rect width="1440" height="560" fill="#fff"/>
</mask>
<style>@keyframes float1 {
                0%{transform: translate(0, 0)}
                50%{transform: translate(-10px, 0)}
                100%{transform: translate(0, 0)}
            }

            .triangle-float1 {
                animation: float1 5s infinite;
            }

            @keyframes float2 {
                0%{transform: translate(0, 0)}
                50%{transform: translate(-5px, -5px)}
                100%{transform: translate(0, 0)}
            }

            .triangle-float2 {
                animation: float2 4s infinite;
            }

            @keyframes float3 {
                0%{transform: translate(0, 0)}
                50%{transform: translate(0, -10px)}
                100%{transform: translate(0, 0)}
            }

            .triangle-float3 {
                animation: float3 6s infinite;
            }</style>
</defs>
</svg>
