<?xml version="1.0" encoding="UTF-8"?>
<svg preserveAspectRatio="none" version="1.1" viewBox="0 0 1440 560" xmlns="http://www.w3.org/2000/svg">
<g fill="rgba(254, 215, 215, 0.4)" mask="url(#a)">
<path class="triangle-float1" d="m182.15 152.1c19.135-0.218 36.946-10.343 46.206-27.089 8.982-16.244 7.304-36.151-2.531-51.893-9.263-14.826-26.194-21.929-43.675-22.067-17.76-0.14-35.304 6.413-44.885 21.368-10.361 16.173-12.611 36.934-3.184 53.668 9.584 17.013 28.543 26.236 48.069 26.013"/>
<path class="triangle-float2" d="m541 327.97 94.631-130.25-130.25-94.631-94.631 130.25z"/>
<path class="triangle-float1" d="m188.51 418.77c36.153 0.624 69.221-18.733 88.309-49.442 20.289-32.642 28.579-74.092 9.054-107.2-19.283-32.695-59.43-43.896-97.363-42.531-35.342 1.272-68.498 18.361-85.936 49.128-17.208 30.361-14.592 67.359 2.752 97.642 17.457 30.479 48.065 51.794 83.184 52.4"/>
<path class="triangle-float1" d="m749.37 165.47a150.06 150.06 0 1 0 300.12 0 150.06 150.06 0 1 0-300.12 0z"/>
<path class="triangle-float2" d="m63.654 231.87c25.295 0.329 42.025-23.475 54.066-45.723 11.309-20.895 17.277-45.009 6.501-66.184-11.767-23.121-34.634-40.785-60.567-40.055-24.981 0.704-43.885 20.892-54.933 43.308-9.735 19.753-6.685 41.901 3.251 61.554 11.272 22.295 26.702 46.775 51.682 47.1"/>
<path class="triangle-float2" d="m498.49 346.81-113.87 50.7 50.7 113.87 113.87-50.7z"/>
<path class="triangle-float3" d="m1328.7 419.02 62.554-80.065-151.37-53.798z"/>
<path class="triangle-float3" d="m754.06 284.04-3.3297-95.349-95.349 3.3297 3.3297 95.349z"/>
<path class="triangle-float3" d="m306.99 531.54a120.17 120.17 0 1 0 240.34 0 120.17 120.17 0 1 0-240.34 0z"/>
<path class="triangle-float3" d="m414.63 146.91a186.21 186.21 0 1 0 372.42 0 186.21 186.21 0 1 0-372.42 0z"/>
<path class="triangle-float2" d="m209.27 452.22c41.322 0.815 84.232-9.817 106.81-44.435 24.557-37.652 28.222-87.764 4.189-125.75-22.743-35.948-68.47-43.942-111-43.078-40.651 0.826-82.391 12.656-103.45 47.437-21.718 35.872-18.496 81.738 3.699 117.32 20.975 33.622 60.13 47.729 99.75 48.511"/>
<path class="triangle-float1" d="m1016.7 513.7 5.1904-99.039-99.039-5.1904-5.1904 99.039z"/>
<path class="triangle-float3" d="m1289.5 212.55-99.548-13.991 85.557 113.54z"/>
<path class="triangle-float2" d="m-52.51 134.28a177.89 177.89 0 1 0 355.78 0 177.89 177.89 0 1 0-355.78 0z"/>
<path class="triangle-float3" d="m798.49 350.03 92.807-47.288-47.288-92.807-92.807 47.288z"/>
<path class="triangle-float3" d="m292.46 57.041c16.514-0.438 32.75-5.309 42.23-18.838 11.159-15.926 18.543-37.016 8.627-53.744-9.798-16.528-31.656-18.193-50.857-17.494-17.669 0.643-35.409 6.012-44.825 20.977-10.013 15.915-11.707 36.835-1.474 52.61 9.556 14.731 28.746 16.955 46.299 16.489"/>
<path class="triangle-float1" d="m483.84 27.146c18.24 0.743 38.643-1.798 48.021-17.46 9.548-15.947 3.376-35.96-6.674-51.596-9.15-14.236-24.426-23.379-41.347-23.112-16.475 0.26-30.812 10.169-39.151 24.38-8.451 14.404-10.893 32.213-2.541 46.674 8.35 14.458 25.01 20.435 41.692 21.114"/>
<path class="triangle-float2" d="m688.37 351.52 117.04-4.0871-4.0871-117.04-117.04 4.0871z"/>
<path class="triangle-float2" d="m406.75 538.11a155.01 155.01 0 1 0 310.02 0 155.01 155.01 0 1 0-310.02 0z"/>
<path class="triangle-float2" d="m854.27 441.7-12.627 102.84 102.84 12.627 12.627-102.84z"/>
</g>
<defs>
<mask id="a">
<rect width="1440" height="560" fill="#fff"/>
</mask>
<style>@keyframes float1 {
                0%{transform: translate(0, 0)}
                50%{transform: translate(-10px, 0)}
                100%{transform: translate(0, 0)}
            }

            .triangle-float1 {
                animation: float1 5s infinite;
            }

            @keyframes float2 {
                0%{transform: translate(0, 0)}
                50%{transform: translate(-5px, -5px)}
                100%{transform: translate(0, 0)}
            }

            .triangle-float2 {
                animation: float2 4s infinite;
            }

            @keyframes float3 {
                0%{transform: translate(0, 0)}
                50%{transform: translate(0, -10px)}
                100%{transform: translate(0, 0)}
            }

            .triangle-float3 {
                animation: float3 6s infinite;
            }</style>
</defs>
</svg>
