<?xml version="1.0" encoding="UTF-8"?>
<svg preserveAspectRatio="none" version="1.1" viewBox="0 0 1440 560" xmlns="http://www.w3.org/2000/svg">
<g fill="rgba(251, 255, 210, 0.4)" mask="url(#a)">
<path class="triangle-float3" d="m849.8 568.3c24.876-0.319 44.52-19.259 56.07-41.294 10.672-20.36 10.747-44.405-0.701-64.339-11.495-20.017-32.314-32.165-55.369-33.296-25.379-1.244-52.711 5.492-65.646 27.362-13.112 22.168-6.034 49.548 7.027 71.745 12.839 21.821 33.303 40.147 58.619 39.822"/>
<path class="triangle-float2" d="m404.36 417.28a123.63 123.63 0 1 0 247.26 0 123.63 123.63 0 1 0-247.26 0z"/>
<path class="triangle-float2" d="m256.1 136-116.62-120.76-120.76 116.62 116.62 120.76z"/>
<path class="triangle-float3" d="m529.24 497.4c43.357 2.433 88.194-9.835 112.61-45.743 27.544-40.501 36.772-94.72 11.41-136.62-24.699-40.808-76.398-52.102-124.02-49.438-42.63 2.384-82.095 24.374-102.12 62.086-18.905 35.611-11.331 77.908 9.455 112.46 20.063 33.345 53.806 55.083 92.661 57.263"/>
<path class="triangle-float1" d="m674.37 657.81c50.849-3.014 85.524-46.347 109.54-91.271 22.324-41.769 32.108-90.364 9.901-132.2-23.549-44.359-69.219-74.87-119.44-74.133-49.111 0.72-87.951 35.613-113.52 77.551-26.926 44.17-44.801 97.278-21.085 143.25 25.383 49.204 79.334 80.074 134.6 76.798"/>
<path class="triangle-float3" d="m660.44 237.95a179.96 179.96 0 1 0 359.92 0 179.96 179.96 0 1 0-359.92 0z"/>
<path class="triangle-float1" d="m92.683 28.863 94.649 68.767 68.767-94.649-94.649-68.767z"/>
<path class="triangle-float1" d="m173.29 154.95a181.47 181.47 0 1 0 362.94 0 181.47 181.47 0 1 0-362.94 0z"/>
<path class="triangle-float3" d="m628.16 22.66a174.28 174.28 0 1 0 348.56 0 174.28 174.28 0 1 0-348.56 0z"/>
<path class="triangle-float1" d="m181.1 221.72-100.69-17.754 23.713 159.91z"/>
<path class="triangle-float3" d="m383.84 363.3c57.847 2.58 123.6 1.353 155.03-47.278 33.26-51.46 19.536-119.65-13.992-170.93-30.458-46.589-85.443-68.971-141.04-66.202-50.885 2.535-92.677 35.296-118.63 79.137-26.546 44.838-40.235 100.05-14.162 145.16 26.058 45.09 80.769 57.794 132.8 60.114"/>
<path class="triangle-float2" d="m1122.7 306.28c26.294-1.257 50.758-12.539 65.016-34.668 15.638-24.27 22.877-54.953 9.062-80.305-14.312-26.263-44.175-39.612-74.078-39.002-28.845 0.588-54.021 17.276-69.023 41.92-15.701 25.793-23.569 58.455-7.732 84.165 15.302 24.841 47.612 29.283 76.755 27.89"/>
<path class="triangle-float2" d="m1094.5 266.97-42.996 140.63 140.63 42.996 42.996-140.63z"/>
<path class="triangle-float1" d="m423.39 206.28-39.06 120.21 120.21 39.06 39.06-120.21z"/>
<path class="triangle-float3" d="m274.86 490.72c39.713-0.565 75.519-21.573 96.412-55.351 22.138-35.79 31.718-81.046 10.401-117.33-21.102-35.919-65.184-48.366-106.81-46.777-38.643 1.475-73.503 21.365-93.563 54.426-20.898 34.441-27.588 77.45-7.72 112.5 20.104 35.461 60.523 53.118 101.28 52.538"/>
<path class="triangle-float3" d="m747.94 213.06 42.907 80.696 99.591-104.71z"/>
<path class="triangle-float1" d="m677.47 199.57a114.23 114.23 0 1 0 228.46 0 114.23 114.23 0 1 0-228.46 0z"/>
<path class="triangle-float2" d="m912.97 346.71 56.681 127.31 127.31-56.681-56.681-127.31z"/>
<path class="triangle-float2" d="m935.04 438.32c49.18 0.921 99.968-15.866 124.68-58.394 24.816-42.7 13.276-94.619-10.645-137.83-24.861-44.907-62.734-85.79-114.04-87.391-53.595-1.673-101.98 32.478-127.07 79.866-23.605 44.582-16.475 98.027 10.221 140.83 25.091 40.231 69.446 62.028 116.85 62.916"/>
<path class="triangle-float2" d="m255.79 593.24 181.87-18.94-91.684-130.94z"/>
</g>
<defs>
<mask id="a">
<rect width="1440" height="560" fill="#fff"/>
</mask>
<style>@keyframes float1 {
                0%{transform: translate(0, 0)}
                50%{transform: translate(-10px, 0)}
                100%{transform: translate(0, 0)}
            }

            .triangle-float1 {
                animation: float1 5s infinite;
            }

            @keyframes float2 {
                0%{transform: translate(0, 0)}
                50%{transform: translate(-5px, -5px)}
                100%{transform: translate(0, 0)}
            }

            .triangle-float2 {
                animation: float2 4s infinite;
            }

            @keyframes float3 {
                0%{transform: translate(0, 0)}
                50%{transform: translate(0, -10px)}
                100%{transform: translate(0, 0)}
            }

            .triangle-float3 {
                animation: float3 6s infinite;
            }</style>
</defs>
</svg>
